<?xml version="1.0" encoding="UTF-8"?>
<svg id="katman_2" data-name="katman 2" xmlns="http://www.w3.org/2000/svg" viewBox="0 0 63.88 73.12">
  <g id="katman_1" data-name="katman 1">
    <g id="WUXBBO">
      <path d="M63.83,54.93c-9.01,4.99-17.79,10.41-26.75,15.49-.67.38-4.72,2.69-5.02,2.7-.58,0-1.12-.44-1.63-.66-9.26-5.8-19.19-10.61-28.46-16.39-.71-.44-1.94-1-1.98-1.87V19.07s.22-1.09.22-1.09L29.98.81c2.35-1.21,2.13-1.01,4.38.23,5.26,2.88,10.36,6.13,15.55,9.14,4.55,2.64,9.2,5.12,13.74,7.77l.22.46-.05,36.53ZM21.3,17.83L29.9,2.43,3.41,17.83h17.89ZM60.48,17.83L33.99,2.43l8.94,15.4h17.55ZM31.27,23.27V3.11l-8.83,15.06,8.83,5.09ZM32.63,23.27l8.83-5.09-8.83-15.06v20.16ZM20.85,19.19H3.64l17.21,9.97v-9.97ZM60.48,19.19h-17.44v9.97l17.44-9.97ZM20.17,30.29L2.5,20.33l8.83,15.08,8.54-4.61c.35.06.39-.39.29-.5ZM30.59,24.63l-7.25-4.3,3.63,6.34,3.62-2.04ZM61.39,20.33l-17.67,10.41,8.7,4.76,8.96-15.17ZM40.33,20.55l-7.02,4.07c.85.04,3.17,2.16,3.82,1.78.29-.17,2.69-5.16,3.2-5.86ZM1.37,51.81c.48-.31.78-1.02,1.08-1.52,2.71-4.54,5.21-9.22,7.9-13.77L1.37,21.01v30.8ZM41.68,29.16v-8.15l-3.62,6.34,3.62,1.82ZM22.21,29.16c.55-.06,3.56-1.72,3.61-1.95-1.23-1.96-2.15-4.19-3.61-5.98v7.93ZM62.52,51.81v-30.58l-8.97,15.29,8.97,15.29ZM31.27,25.76c-.57.09-3.6,1.9-3.6,2.15l3.6,6v-8.15ZM32.63,25.76v7.93c1.43-1.81,2.49-3.97,3.63-5.99l-3.63-1.93ZM26.72,28.5c-.47-.34-3.07,1.8-3.83,1.91l7.02,4.19-3.19-6.1ZM41,30.29c-.81.06-3.38-2.12-3.84-1.81l-3.41,6.1,7.25-4.3ZM20.85,35.73v-4.08l-6.8,3.96c.01.34,6.33.09,6.8.11ZM22.21,35.73c1.06.45,1.89,0,2.82-.01,1.05,0,2.22.1,3.29.13.3,0,.39.22.68-.23l-6.79-3.96v4.08ZM41.68,35.61c.26-.89-.19-2.92,0-3.96l-6.79,4.07c1.66.14,3.4-.05,5.1,0,.48.01,1.51.5,1.69-.1ZM43.04,31.65v4.08c2.28.45,4.51-.13,6.8.11-.17-.57-1.03-.9-1.52-1.2-1.73-1.03-3.56-1.93-5.28-2.99ZM20.85,37.09h-7.25l7.25,4.08v-4.08ZM29.45,37.09h-7.25v4.3l7.25-4.3ZM41.68,37.09h-7.25l7.25,4.08v-4.08ZM50.29,37.09h-7.25v4.08l7.25-4.08ZM20.17,42.3l-9.04-4.74-8.4,14.93,17.44-10.19ZM61.16,52.48l-8.61-14.85-8.83,4.66,17.44,10.19ZM22.89,42.75l3.63,1.72c.46-.67,3.61-5.75,3.39-6.02l-7.02,4.3ZM40.78,42.3l-7.02-3.85,3.75,6.11c.73-.58,2.44-1.16,3.03-1.7.15-.14.38-.34.23-.55ZM31.27,47.28v-8.15l-3.6,6c0,.23,3.46,2.31,3.6,2.15ZM32.63,47.28c.58-.21,3.53-1.76,3.57-2.15l-3.57-6.01v8.15ZM20.85,53.85v-10.19L3.41,53.85h17.44ZM22.21,51.81l3.6-6.01-3.6-2.15v8.15ZM41.68,51.81v-8.15l-3.59,2.15,3.59,6.01ZM43.04,43.65v10.19h17.44l-17.44-10.19ZM30.59,48.41l-3.51-2.04-3.51,6.11,7.02-4.07ZM40.32,52.49l-3.51-6.1-3.51,2.03,7.02,4.07ZM31.27,49.77l-8.83,5.09,8.83,15.06v-20.16ZM32.63,49.77v20.16l8.82-15.06-8.82-5.09ZM21.3,55.2H3.41l26.5,15.4-8.6-15.4ZM60.48,55.2h-17.89l-8.6,15.4,26.5-15.4Z"/>
    </g>
  </g>
</svg>